<svg xmlns="http://www.w3.org/2000/svg" viewBox="0 0 1156.74 1016.05"><defs><style>.cls-1{fill:#010101;}</style></defs><g id="Layer_2" data-name="Layer 2"><g id="Layer_1-2" data-name="Layer 1"><path class="cls-1" d="M344.53,631A82.58,82.58,0,1,1,262,548.38,82.57,82.57,0,0,1,344.53,631Z"/><path class="cls-1" d="M267.2,442.68A133.6,133.6,0,1,1,133.6,309.09,133.6,133.6,0,0,1,267.2,442.68Z"/><circle class="cls-1" cx="423.05" cy="216.16" r="216.16" transform="translate(-28.94 362.46) rotate(-45)"/><circle class="cls-1" cx="806.98" cy="666.3" r="349.75" transform="translate(-234.78 765.78) rotate(-45)"/><path class="cls-1" d="M440.53,555.11a51,51,0,1,1-51-51A51,51,0,0,1,440.53,555.11Z"/><path class="cls-1" d="M379.75,475.52A31.54,31.54,0,1,1,348.22,444,31.53,31.53,0,0,1,379.75,475.52Z"/><path class="cls-1" d="M315.53,494.14a19.49,19.49,0,1,1-19.48-19.49A19.49,19.49,0,0,1,315.53,494.14Z"/><path class="cls-1" d="M313.81,530.27a12,12,0,1,1-12-12A12,12,0,0,1,313.81,530.27Z"/><path class="cls-1" d="M333.22,530.84a7.45,7.45,0,1,1-7.45-7.44A7.45,7.45,0,0,1,333.22,530.84Z"/><path class="cls-1" d="M333.84,516.27a4.6,4.6,0,1,1-4.6-4.6A4.6,4.6,0,0,1,333.84,516.27Z"/><path class="cls-1" d="M324.06,510.88a2.85,2.85,0,1,1-2.85-2.85A2.85,2.85,0,0,1,324.06,510.88Z"/></g></g></svg>